# xmcd
#
# Track frame offsets: 
#        150
#        12893
#        24908
#        37596
#        49325
#        59190
#        72732
#        86565
#        99680
#        109637
#        121940
#        134419
#        146770
#        160342
#        171047
#        181728
#        192251
#        203268
#        214537
#        227886
#        237691
#        248771
#        256929
#        268534
#        279473
#        288283
#        297375
#
# Disc length: 4086 seconds
#
# Revision: 0
# Processed by: cddbd v1.5.2PL0 Copyright (c) Steve Scherf et al.
# Submitted via: ExactAudioCopy v0.99pb3
#
DISCID=8d0ff41b
DTITLE=Various Artist - Japan Wild Favourites!
DYEAR=2002
DGENRE=Wildworld
TTITLE0=Carnabeats - Chu!Chu!Chu!
TTITLE1=Carnabeats - Koio Shiyou Yo Jenny
TTITLE2=Carnabeats - Omaeni Muchusa
TTITLE3=Carnabeats - Sutekina Sandy
TTITLE4=Dynamites - Koiwa Mo Takusan
TTITLE5=Dynamites - Nobosecha Ikenai
TTITLE6=Dynamites - Otona No Senso
TTITLE7=Dynamites - Tunnel Tengoku
TTITLE8=Golden Cups - Hiwa-Mata Noboru
TTITLE9=Golden Cups - Love Is My Life
TTITLE10=Jaguars - Awarena John
TTITLE11=Jaguars - Dancin' Baby
TTITLE12=Jaguars - Dancing Lonely Night
TTITLE13=Jaguars - Lonely Girl
TTITLE14=Jaguars - My Dawn
TTITLE15=Jaguars - Wakai Ashita
TTITLE16=Mops - Asahi Yo Saraba
TTITLE17=Mops - Bera Yo Isoge
TTITLE18=Mops - I'm A Mops
TTITLE19=Spiders - Furi Furi '66
TTITLE20=Spiders - Go Go
TTITLE21=Spiders - Hey Boy
TTITLE22=Spiders - Little Robby
TTITLE23=Spiders - Mr Monkey
TTITLE24=Spiders - Once Again
TTITLE25=Spiders - Robby Robby
TTITLE26=Spiders - Teardrops
EXTD=
EXTT0=
EXTT1=
EXTT2=
EXTT3=
EXTT4=
EXTT5=
EXTT6=
EXTT7=
EXTT8=
EXTT9=
EXTT10=
EXTT11=
EXTT12=
EXTT13=
EXTT14=
EXTT15=
EXTT16=
EXTT17=
EXTT18=
EXTT19=
EXTT20=
EXTT21=
EXTT22=
EXTT23=
EXTT24=
EXTT25=
EXTT26=
PLAYORDER=
